<svg xmlns="http://www.w3.org/2000/svg" viewBox="0 0 889 612"><defs><style>.cls-1,.cls-3,.cls-8{fill:none;stroke:#fff;stroke-miterlimit:10;}.cls-1{stroke-width:1.5px;}.cls-2,.cls-4,.cls-7{fill:#fff;}.cls-2{opacity:0.5;}.cls-3{stroke-width:6px;}.cls-4{font-size:36px;font-family:Lato-Medium, Lato;font-weight:500;}.cls-5{letter-spacing:-0.01em;}.cls-6{letter-spacing:-0.03em;}.cls-8{stroke-width:2px;}</style></defs><title>Front Driver Side</title><g id="Layer_2" data-name="Layer 2"><g id="Layer_1-2" data-name="Layer 1"><ellipse class="cls-1" cx="485.08" cy="390.34" rx="59.12" ry="27.62" transform="translate(81.56 864.52) rotate(-88.43)"/><ellipse class="cls-1" cx="747.03" cy="328.58" rx="16.67" ry="44.52"/><path class="cls-1" d="M117.11,289.7c4.57,6.5-12.41,25.8-18.79,21.7-11.87-7.63-11.87-35.09,5.94-52.89,9-9,32.63-13.47,41.5-14.87a.45.45,0,0,1,.26.86C135.19,249.4,101.21,267.07,117.11,289.7Z"/><path class="cls-1" d="M453,227.43,230.5,215.91s88.78-67.6,110.55-72.91c47.33-11.56,203.45-1.31,203.45-1.31l-62.74,73.36A35.51,35.51,0,0,1,453,227.43Z"/><path class="cls-1" d="M686.38,194.58c-3.55,6.24-141,31.14-179.7,38.29-4,.74,41.3-67.66,56.44-80.56,8-6.83,24.13-14.84,48.91-14.77,48.27.14,79.8,27.57,86.16,32a3,3,0,0,1,.93,4C695.84,179.35,687.74,192.19,686.38,194.58Z"/><path class="cls-2" d="M0,0V612H889V0ZM781.5,328.9c0,25.67-6.49,47.89-15.94,58.72-.14.18-.29.35-.45.52l-.07.09c-.38.41-.77.83-1.2,1.22a18.92,18.92,0,0,1-7.18,4.53,54.55,54.55,0,0,1-21.84,4.2c-8.84,0-16.85-1.78-22.8-4.66a16.79,16.79,0,0,1-2.76-1.48l-.19-.13c-.17-.11-.34-.22-.5-.34A17.16,17.16,0,0,1,703,386a58.16,58.16,0,0,1-8.29-16.13c-17.33,2.92-35,6.11-52.69,10.33-75.39,19.53-102.9,31.42-112.23,33.38-3.49,22.87-11.31,41.67-21.23,51.91-.19.22-.4.43-.61.64l-.11.1a21.71,21.71,0,0,1-1.63,1.51,25.14,25.14,0,0,1-9.67,5.44c-7.82,3.08-18,4.81-29.06,4.51-11.71-.33-22.26-2.86-30-6.71a22.76,22.76,0,0,1-3.61-2l-.25-.17-.65-.44a22.38,22.38,0,0,1-7.23-7.27,72.83,72.83,0,0,1-10.53-21c-37.94-.5-128.32.09-128.32.09a780.68,780.68,0,0,1-97.19-4.24,26.72,26.72,0,0,1-2.85,2.05l-.6.39-.23.14a20.9,20.9,0,0,1-3.32,1.71c-7.15,3.29-16.78,5.32-27.4,5.32-10,0-19.21-1.82-26.23-4.81a22.81,22.81,0,0,1-8.62-5.17,17.45,17.45,0,0,1-1.44-1.4l-.1-.1c-.18-.2-.37-.39-.54-.6a49.73,49.73,0,0,1-6.91-9.93q-3-.65-6-1.3l.29-.76a29.35,29.35,0,0,1-4.66-1.31c-12-4.5-20.52-10.05-24.31-16.91a47.86,47.86,0,0,1-4.49-13.55,88.65,88.65,0,0,1,.8-36.94c1.33-5.82,2.81-12.32,3.67-16.22,2-9.25,5-13,7.74-20.85,2.27-6.54,4.35-38.17,5-39.39s5.91-17.18,20.35-23.45c24.34-10.58,30.16-6.64,45.37-14.81,12.85-6.9,18.28-6.57,51.08-27.76l8.76-5.66s-.92-4.31,1.2-11.52,28.69-7.61,28.69-7.61c51.46-32.69,69.9-42.67,87-49.62,13.45-5.45,32.73-10.15,42.32-11.87,52.51-9.37,76.39-11.61,133.49-11.51,64.06.12,95.08,5.13,121.59,10.24,46.21,8.9,81,29,118.49,59.78,0,0,6.84-.33,9.75,1.69,3.75,2.6,7.18,8.26,9.61,11.45,12.44,16.32,16.47,51.72,14.42,59.49-.39,1.46,1.36,9.8,1.69,18.37s-.29,15,0,17.24c.64,4.94,1.47,14.52-1.93,30.66C781.43,323.87,781.5,326.37,781.5,328.9Z"/><path class="cls-1" d="M415.6,309.71c-11.82,8.31-33,12.59-64.8,16.09A242.7,242.7,0,0,1,314,327.28a5.47,5.47,0,0,1-3-1.1l-20.13-15a.91.91,0,0,1,.23-1.59c9.9-3.62,64.34-23.57,103.22-39.46,43.36-17.72,75.86-11.08,77.09-6.23.5,2-7.53,4-20.8,13.1C429.63,291.28,429.81,299.72,415.6,309.71Z"/><path class="cls-3" d="M783.42,290.29c-.29-2.26.34-8.55,0-17.24s-2.08-16.91-1.69-18.37c2-7.77-2-43.17-14.42-59.49-2.43-3.19-5.87-8.85-9.61-11.45-2.91-2-9.75-1.7-9.75-1.7-37.52-30.73-72.28-50.87-118.49-59.77C603,117.16,571.93,112.15,507.87,112c-57.1-.1-81,2.13-133.49,11.51-9.59,1.71-28.87,6.42-42.32,11.87-17.15,7-35.59,16.93-87.06,49.62,0,0-26.56.4-28.68,7.61s-1.2,11.52-1.2,11.52l-8.76,5.65c-32.8,21.19-38.23,20.87-51.09,27.77-15.2,8.17-21,4.23-45.36,14.81-14.44,6.27-19.69,22.17-20.35,23.45s-2.7,32.85-5,39.39c-2.71,7.81-5.72,11.59-7.75,20.85-.85,3.89-2.33,10.4-3.66,16.22a88.65,88.65,0,0,0-.8,36.94,48,48,0,0,0,4.49,13.55c3.78,6.86,12.26,12.41,24.31,16.91a29.35,29.35,0,0,0,4.66,1.31l-.29.76q3,.66,6,1.3a49.73,49.73,0,0,0,6.91,9.93c.17.2.36.4.54.6l.1.09a19.1,19.1,0,0,0,1.43,1.41,22.92,22.92,0,0,0,8.63,5.17c7,3,16.18,4.81,26.23,4.81,10.62,0,20.25-2,27.4-5.33a21.27,21.27,0,0,0,3.32-1.7l.23-.14.6-.39a27.78,27.78,0,0,0,2.85-2A778.56,778.56,0,0,0,287,439.7s90.38-.59,128.32-.08a72.83,72.83,0,0,0,10.53,21,22.27,22.27,0,0,0,7.23,7.26c.21.16.43.3.65.45l.24.17a23.67,23.67,0,0,0,3.61,2c7.79,3.85,18.34,6.38,30.05,6.7,11.08.31,21.24-1.42,29.06-4.5a25.27,25.27,0,0,0,9.67-5.44c.59-.49,1.12-1,1.63-1.51l.11-.1c.21-.22.42-.43.61-.64,9.92-10.24,17.74-29.05,21.23-51.91,9.33-2,36.84-13.85,112.22-33.38,17.74-4.22,35.37-7.41,52.7-10.33a58.42,58.42,0,0,0,8.28,16.13,17.26,17.26,0,0,0,5.6,5.6l.5.34.2.12a16.13,16.13,0,0,0,2.76,1.49c5.95,2.88,14,4.66,22.8,4.66a54.49,54.49,0,0,0,21.83-4.21A18.73,18.73,0,0,0,764,389c.43-.4.82-.81,1.19-1.23l.08-.08c.16-.17.31-.34.45-.52,9.45-10.83,15.94-33,15.94-58.72,0-2.53-.07-5-.19-7.48C784.89,304.81,784.06,295.23,783.42,290.29Z"/><text class="cls-4" transform="translate(46.6 569.72)">F<tspan class="cls-5" x="20.36" y="0">R</tspan><tspan x="42.77" y="0">ON</tspan><tspan class="cls-6" x="99.21" y="0">T</tspan></text><text class="cls-4" transform="translate(624.67 569.44)">DRIVER SIDE</text><polygon class="cls-7" points="693.56 526.97 690.86 528.29 624.31 383.63 627 382.32 693.56 526.97"/><polygon class="cls-7" points="134.31 527.3 129.65 527.3 269.56 438.3 274.22 438.3 134.31 527.3"/><rect class="cls-8" x="607.54" y="527.3" width="251.9" height="55" transform="translate(1466.97 1109.61) rotate(-180)"/><rect class="cls-8" x="29.43" y="527.3" width="154.1" height="55" transform="translate(212.97 1109.61) rotate(-180)"/></g></g></svg>