<svg xmlns="http://www.w3.org/2000/svg" viewBox="0 0 877.56 613.56"><defs><style>.cls-1,.cls-3,.cls-4,.cls-5,.cls-8{fill:none;stroke:#fff;stroke-miterlimit:10;}.cls-1{stroke-width:1.27px;}.cls-2,.cls-6,.cls-7{fill:#fff;}.cls-2{opacity:0.5;}.cls-3{stroke-width:1.32px;}.cls-4{stroke-width:1.22px;}.cls-5{stroke-width:4.41px;}.cls-7{font-size:36px;font-family:Lato-Medium, Lato;font-weight:500;}.cls-8{stroke-width:1.78px;}</style></defs><title>Driver Side</title><g id="Layer_2" data-name="Layer 2"><g id="Layer_1-2" data-name="Layer 1"><circle class="cls-1" cx="674.63" cy="388.81" r="45.18" transform="translate(-77.33 590.91) rotate(-45)"/><path class="cls-2" d="M0,0V613.56H877.56V0ZM818.08,387.71a491.83,491.83,0,0,1-71,17.57h-.91c-1-.21-6.74-6.49-11.9-12.6-2.29,30.05-28.14,53.74-59.71,53.74-28.66,0-52.6-19.51-58.49-45.58-2.73,3.67-5.39,15.63-6.35,15.64-113.66-2-239.94,2.86-371.18-2.47-.65,0-.91-.53-.78-1.18.47-2.76-2.91-13.84-6.26-18-3.87,28.44-29,50.4-59.36,50.4-30.66,0-55.92-22.34-59.45-51.15-4.32,5.54-6.82,9.36-6.82,9.36a15.46,15.46,0,0,1-1.24,2.5,1.55,1.55,0,0,0,.07.23v.26a.62.62,0,0,1-.57.66h-.08c-2.08-.13-3.64-.27-6-.4-18.88-.65-35.8-9-53.25-15-14.19-25.13,3.52-38,0-41.27a12.33,12.33,0,0,1-4.16-6.64c-.65-3.77,1.56-7,2.21-8.85,3.12-9.77,10.68-25.39,29.68-38.15,52.21-34.89,123.3-39.06,137.36-41,31.51-4.3,105.59-49.08,156.88-62.23A485.45,485.45,0,0,1,485.44,179c40.75-.13,72,2.47,100.38,7.55,73.43,13.28,98.94,33.2,166.26,51,22.39,5.86,42,3.78,54.68,3.26a4.07,4.07,0,0,1,3.38,1.82,68.39,68.39,0,0,1,7.55,16.27,55.4,55.4,0,0,1,2.87,13.94c.91,11.06-1.83,14.84.65,24.08,3.51,13.67,14.19,18.62,14.19,27.73C835.4,334.33,843.21,373.65,818.08,387.71Z"/><ellipse class="cls-1" cx="172.19" cy="387.64" rx="46.09" ry="44.92"/><path class="cls-3" d="M816.17,262.72c-7.55-8.46-86.32-12.11-96.61,5.34-.13,0-.13.13,0,.13,15.76,1.56,33.85,3.9,43.36,6.9,10.67,3.25,20.31,10.41,33.07,13.67a39.36,39.36,0,0,0,16.53,0,4.2,4.2,0,0,0,3.39-3.13C817.47,279.52,818.77,265.58,816.17,262.72Z"/><path class="cls-3" d="M89.87,322.48a231,231,0,0,1,73.56-37.76c.39-.13,0-2.47-.26-2.47-13.67.91-81,8.46-99.73,25.52-2.08,1.82,0,10,1.18,14.32a3.36,3.36,0,0,0,3.51,2.47l18.49-1A6.08,6.08,0,0,0,89.87,322.48Z"/><path class="cls-4" d="M451.62,194.12c-63.32,3.56-89.7,14.46-148.75,45.12-17.68,9.77-40.41,21.49-58.34,31.25-.12,0-.24.26-.24.39a.55.55,0,0,0,.48.39c65.85-.8,136.41-4.47,206.85-9.27Z"/><path class="cls-4" d="M644.51,223.36c-34.36-14.26-94.7-31.21-169.45-30.11v67.11q19.63-1.39,39.17-2.89,34.29-2.73,67.85-5.86a242.6,242.6,0,0,0,62.55-25.78,1.4,1.4,0,0,0,.6-.65A1.48,1.48,0,0,0,644.51,223.36Z"/><path class="cls-5" d="M834.91,325.62c0-9.12-10.67-14.07-14.19-27.74-2.47-9.24.26-13-.65-24.08a55.22,55.22,0,0,0-2.86-13.93,68.88,68.88,0,0,0-7.56-16.28,4.09,4.09,0,0,0-3.38-1.82c-12.63.52-32.29,2.6-54.68-3.25-67.31-17.84-92.83-37.76-166.26-51C557,182.4,525.7,179.8,485,179.93a486,486,0,0,0-118.61,14.58C315.05,207.66,241,252.45,209.46,256.74c-14.06,2-85.15,6.12-137.35,41-19,12.76-26.56,28.39-29.69,38.15-.65,1.82-2.86,5.08-2.21,8.85a12.29,12.29,0,0,0,4.17,6.64c3.51,3.26-14.2,16.15,0,41.28,17.44,6,34.37,14.32,53.24,15,2.35.13,3.91.26,6,.39h.08a.61.61,0,0,0,.57-.65v-.26a2.17,2.17,0,0,0-.07-.24,15.91,15.91,0,0,0,1.25-2.5s2.49-3.82,6.81-9.36c3.53,28.81,28.79,51.16,59.45,51.16,30.4,0,55.49-22,59.36-50.41,3.35,4.15,6.73,15.23,6.26,18-.13.65.13,1.17.78,1.17,131.24,5.34,257.53.52,371.19,2.47,1,0,3.61-12,6.35-15.64,5.89,26.07,29.83,45.59,58.48,45.59,31.58,0,57.43-23.7,59.71-53.75,5.16,6.12,10.93,12.39,11.9,12.61h.91a492,492,0,0,0,71-17.58C842.72,374.57,834.91,335.25,834.91,325.62Z"/><rect class="cls-6" x="440.9" y="418.69" width="4" height="109.5"/><text class="cls-7" transform="translate(332.26 570.61)">DRIVER SIDE</text><rect class="cls-8" x="315.1" y="528.19" width="247.76" height="55" transform="translate(877.96 1111.39) rotate(-180)"/></g></g></svg>