<svg xmlns="http://www.w3.org/2000/svg" viewBox="0 0 889 612"><defs><style>.cls-1,.cls-3,.cls-6{fill:none;stroke:#fff;stroke-miterlimit:10;}.cls-1{stroke-width:1.5px;}.cls-2,.cls-4,.cls-5{fill:#fff;}.cls-2{opacity:0.5;}.cls-3{stroke-width:5px;}.cls-4{font-size:36px;font-family:Lato-Medium, Lato;font-weight:500;}.cls-6{stroke-width:2px;}</style></defs><title>Rear Driver Side</title><g id="Layer_2" data-name="Layer 2"><g id="Layer_1-2" data-name="Layer 1"><ellipse class="cls-1" cx="369.99" cy="387.59" rx="28.96" ry="61.98"/><ellipse class="cls-1" cx="109.26" cy="327.2" rx="17.48" ry="46.67"/><path class="cls-1" d="M459.18,189.67c51.37,13.23,234.75-3.24,234.15-3.64-11.21-7.33-81.21-41.65-103.81-47.45-49.13-12.62-197.51-1-197.51-1S438.4,184.33,459.18,189.67Z"/><path class="cls-1" d="M157.47,211.69,329.8,206s67.74-24.83,58.26-35.1C346,125.3,284.87,121.56,234.59,147.13,190.93,169.34,157.47,211.69,157.47,211.69Z"/><path class="cls-2" d="M0,0V612H889V0ZM817,357.06s-.13.67-.38,1.81v2.68s-3.34,21.12-7.51,32.06c-.31.82-4.22,4.05-6.72,4.28L752,402.54c-3.55,14.28-9.07,25.92-15.77,33.24-.18.21-.38.41-.57.62a.47.47,0,0,1-.1.1c-.47.5-1,1-1.5,1.48a24.07,24.07,0,0,1-9,5.42c-7.36,3.13-17,5-27.5,5-11.14,0-21.23-2.13-28.72-5.58a21.64,21.64,0,0,1-3.48-1.79l-.25-.15c-.21-.13-.42-.26-.62-.41a21.19,21.19,0,0,1-7.06-6.71c-4.38-5.43-8.19-12.79-11.19-21.52l-136,12.54c-5.12,4-11.11,7-21.2,7.53-24.07,1.26-41.11,2.35-54,3.08-3.18,10.85-7.54,19.92-12.71,26.33a21.39,21.39,0,0,1-7.06,6.71l-.63.41-.24.14a22.07,22.07,0,0,1-3.48,1.79c-7.5,3.45-17.59,5.58-28.72,5.58-10.54,0-20.15-1.91-27.5-5a23.86,23.86,0,0,1-9.05-5.42,19.26,19.26,0,0,1-1.51-1.48l-.1-.1c-.19-.2-.38-.41-.56-.62-8.44-9.2-16.24-25.27-19.46-44.81a2,2,0,0,0-3-1.46c-.53.31-1.07.64-1.57,1a3.4,3.4,0,0,1-3.2.41c-40.45-15.72-102.34-31.28-134.68-40.6-9.18-1.83-18.35-3.64-27.36-5.27a50.76,50.76,0,0,1-6.84,12.86,15.65,15.65,0,0,1-5.1,5.09l-.45.31-.17.11a15.09,15.09,0,0,1-2.52,1.36c-5.41,2.62-12.7,4.23-20.74,4.23a49.67,49.67,0,0,1-19.86-3.82A17.19,17.19,0,0,1,91.91,389c-.4-.37-.75-.74-1.09-1.12l-.07-.08c-.14-.16-.28-.31-.41-.47-6.73-7.72-10.48-21.8-12.32-38.76,0-.09-4.76,1.38-6.14-1.31l0,0a23.81,23.81,0,0,1-2.22-6.89c-.65-4.3-1-29.39.61-44a74.66,74.66,0,0,1,.84-7.87,121.75,121.75,0,0,1,10.37-31.71,77.62,77.62,0,0,1,4.78-8.89c-3.18-9.91,2.81-17.78,2.81-17.78,4.83-6.72,13.92-6.76,17.77-6.44,6.05-2.91,18.37-6,19.39-6.22,1.54-.36,3.67-2.59,6.88-6.26-1.62-.22-3.11-.45-4.37-.66a8.2,8.2,0,0,1-6.41-5.46c-1.68-4.91-3.22-9.72-2.08-12.74,3.26-8.61,22.59-8.88,31.12-8.59,2.53.08,4.19.68,4.9,2.7,16.68-15.78,42.3-35.79,82.26-55.74,48.41-24.15,233.08-20.22,250-18.64,21.22,2,80.45-2.18,177.35,40.42,28.71,12.62,63.6,37.94,106.57,44.75,6,1,9.19,12,11.22,14.44,4.74,5.61,7.55,2,13.11,7.11,4.37,4,5.37,10.83,6.67,14.67,1.35,4,1.5,7.54.86,12.91,0,.08,0,.15,0,.22,0,1.31-.15,2.7-.34,4.26-.7,5.83-2.81,9.8-3.74,13.54a10.61,10.61,0,0,0,.81,3.07c3.87,9,12.11,25.76,15.38,31.5a5.24,5.24,0,0,1,.69,2.62Z"/><path class="cls-1" d="M763,260.07a11.56,11.56,0,0,0,4.13,1.67c3.43.73,29.55,2.84,36.37-5.57,7.1-8.76,1-38.44-9.16-40.1-1.83-.3-2.51,2.91-4.23,3.78-14.77,7.47-38,16.51-54.22,17.56-.66,0-.24,3,.31,3.39C745.61,247.49,753.44,253.27,763,260.07Z"/><path class="cls-1" d="M467.87,270.75c14.62,6.1,38.57,6.13,73.78,3.18,25.78-2.16,42.08-6.52,42.08-6.52l21-22.23s-72-10.37-122.38-19.55c-50.89-9.28-84.7,4.25-85,9.48-.12,2.15,9,2.6,25.4,9.19C448.64,254.69,450.28,263.41,467.87,270.75Z"/><path class="cls-3" d="M816.13,299.35c-3.27-5.74-11.51-22.49-15.37-31.5a10.73,10.73,0,0,1-.82-3.07c.93-3.74,3-7.72,3.74-13.54.19-1.56.3-3,.35-4.26l0-.22c.64-5.37.5-8.92-.86-12.91-1.3-3.84-2.3-10.66-6.67-14.67-5.55-5.11-8.37-1.5-13.11-7.11-2-2.41-5.18-13.48-11.22-14.44-43-6.81-77.85-32.13-106.57-44.76-96.89-42.59-156.12-38.41-177.35-40.41-16.86-1.58-201.54-5.52-249.95,18.64-40,20-65.58,40-82.26,55.74-.7-2-2.37-2.62-4.9-2.7-8.52-.29-27.86,0-31.12,8.59-1.14,3,.4,7.83,2.08,12.74a8.2,8.2,0,0,0,6.42,5.46c1.25.21,2.75.44,4.36.66-3.21,3.67-5.34,5.9-6.88,6.26-1,.24-13.33,3.31-19.39,6.22-3.85-.32-12.94-.28-17.76,6.44,0,0-6,7.87-2.82,17.78a77.62,77.62,0,0,0-4.78,8.89,122.13,122.13,0,0,0-10.37,31.71,74.85,74.85,0,0,0-.83,7.87c-1.6,14.63-1.27,39.72-.61,44a23.42,23.42,0,0,0,2.21,6.89l0,.05c1.38,2.69,6.13,1.22,6.14,1.31,1.85,17,5.59,31,12.32,38.76.13.16.27.31.41.47l.07.08c.34.38.7.75,1.09,1.12a17.15,17.15,0,0,0,6.54,4.11,49.61,49.61,0,0,0,19.85,3.82c8,0,15.33-1.61,20.75-4.23a15.77,15.77,0,0,0,2.51-1.36l.17-.11.46-.31a15.71,15.71,0,0,0,5.09-5.09A50.76,50.76,0,0,0,154,373.43c9,1.63,18.17,3.44,27.36,5.27C213.64,388,275.53,403.58,316,419.3a3.39,3.39,0,0,0,3.2-.41c.5-.35,1-.68,1.57-1a2,2,0,0,1,3,1.46c3.22,19.54,11,35.61,19.46,44.81.18.21.37.42.57.62l.1.1a21,21,0,0,0,1.5,1.48,23.94,23.94,0,0,0,9.05,5.42c7.36,3.13,17,5,27.5,5,11.14,0,21.23-2.13,28.72-5.58a21.64,21.64,0,0,0,3.48-1.79l.24-.14.63-.41a21.31,21.31,0,0,0,7.06-6.72c5.17-6.4,9.53-15.47,12.71-26.32,12.88-.73,29.93-1.82,54-3.08,10.09-.52,16.08-3.56,21.2-7.53l136-12.54c3,8.73,6.8,16.09,11.18,21.52a21.29,21.29,0,0,0,7.06,6.71c.21.15.42.28.63.41l.24.15a22.07,22.07,0,0,0,3.48,1.79c7.5,3.45,17.59,5.58,28.72,5.58,10.54,0,20.14-1.91,27.5-5a24,24,0,0,0,9.05-5.42c.55-.48,1-1,1.51-1.48l.1-.1c.19-.21.38-.41.56-.62,6.71-7.32,12.23-19,15.77-33.25l50.42-4.64c2.49-.23,6.4-3.46,6.71-4.28,4.17-10.94,7.52-32.06,7.52-32.06v-2.68c.24-1.15.37-1.81.37-1.81V302A5.24,5.24,0,0,0,816.13,299.35Z"/><text class="cls-4" transform="translate(45.52 569)">DRIVER SIDE</text><polygon class="cls-5" points="165 528.36 168.54 528.36 235.86 391.36 232.32 391.36 165 528.36"/><rect class="cls-6" x="29" y="528.36" width="250" height="55"/><text class="cls-4" transform="translate(755.07 568.78)">REAR </text><polygon class="cls-5" points="753.47 528.58 758.84 528.58 594.13 415.57 588.76 415.57 753.47 528.58"/><rect class="cls-6" x="739.73" y="528.58" width="121.31" height="55" transform="translate(1600.76 1112.15) rotate(-180)"/></g></g></svg>