<svg xmlns="http://www.w3.org/2000/svg" viewBox="0 0 889 614"><defs><style>.cls-1,.cls-2,.cls-4,.cls-9{fill:none;stroke:#fff;stroke-miterlimit:10;}.cls-1{stroke-width:1.32px;}.cls-2{stroke-width:1.27px;}.cls-3,.cls-5,.cls-6{fill:#fff;}.cls-3{opacity:0.5;}.cls-4{stroke-width:4.41px;}.cls-6{font-size:36px;font-family:Lato-Medium, Lato;font-weight:500;}.cls-7{letter-spacing:-0.01em;}.cls-8{letter-spacing:-0.03em;}.cls-9{stroke-width:2px;}</style></defs><title>Front</title><g id="Layer_2" data-name="Layer 2"><g id="Layer_1-2" data-name="Layer 1"><path class="cls-1" d="M308.55,342.62a1.87,1.87,0,0,0,1.56-3.33c-12.37-10.85-44.73-39.36-50.73-46-5-5.62-37.48-40.46-40.8-44.23-5.11-5.88-18.34-6.24-18.23,38.81,0,4.35,1.55,16.14,4.65,21.63,5.22,9.37,13.43,22.62,46.11,23.78C262.51,335.2,268.15,337,308.55,342.62Z"/><path class="cls-2" d="M441.81,113.75c-50.44.21-103,3.06-145.41,7.59-10.68,16.34-26.41,45.33-34.79,72.54-5.82,19-5.84,23.82,5.19,26.65,0,0,350.24,1.88,355.51.6,11.09-2.83,11.44-5.62,5.61-24.6-8.36-27.25-24.08-56.22-34.73-72.53-42.39-4.55-95-10-145.43-10.25a1362.58,1362.58,0,0,0-150.71,7.76"/><path class="cls-3" d="M0,0V614H889V0ZM668.23,224.65a31.65,31.65,0,0,0,13.54,18.54,32.11,32.11,0,0,1,14.35,19.3c2.12,3.05,4.41,8.7,9.62,13.59,3.59,3.37,7.25,6.76,9.12,12.1,7.87,21.74,4,97.45,2.53,171.66a8.91,8.91,0,0,1-.52,2.87,189.2,189.2,0,0,1-3.82,39.82c0,7.23-6.81,13.12-15.18,13.12h-36.1c-12,0-21.66-8.4-21.66-18.72V474.79l-5.94,0a20.87,20.87,0,0,1-10.53-2.92,31,31,0,0,0-15.45-4.09H275.86a31.4,31.4,0,0,0-13.33,3,16.39,16.39,0,0,1-7.49,1.52c-3.82-.1-7.18-.2-10.18-.3v24.21c0,10.33-9.7,18.72-21.66,18.72H187.11c-8.38,0-15.18-5.88-15.18-13.12A188.89,188.89,0,0,1,168.15,459a18.77,18.77,0,0,1-2.86-9.75c-1-82-.11-142,8.42-165.57,4.08-11.19,15.34-13.74,18.74-25.69a32.26,32.26,0,0,1,14.37-19.31,31.48,31.48,0,0,0,12-14.16C152,218.75,153.77,201.19,164.9,184c7.16-11,23.63-5.22,40.07-3.09,9.52,1.24,12.83,15.48,11,29.67h7.61c9-22.13,31.4-64.74,51-90.14,3.77-4.86,11-13.25,28-15.13C453.38,88.69,581.9,107,581.9,107c11,.9,22.71,5.34,29.5,14.16,19.41,25.17,41.66,67.28,50.75,89.56H673c-1.82-14.18,1.48-28.43,11-29.66,16.43-2.14,32.9-7.91,40.06,3.09C735.34,201.44,737,219.17,668.23,224.65Z"/><path class="cls-1" d="M577.94,346.19a1.88,1.88,0,0,1-1.56-3.34c12.39-10.85,44.73-39.35,50.73-46,5-5.53,37.48-40.48,40.8-44.22,5.13-5.89,18.34-6.25,18.32,38.81,0,4.32-1.55,16.13-4.64,21.62-5.23,9.37-13.44,22.6-46.12,23.76C624,338.77,618.34,340.56,577.94,346.19Z"/><path class="cls-4" d="M723.87,184c-7.16-11-23.63-5.23-40.07-3.09-9.53,1.23-12.83,15.47-11,29.66H661.92c-9.1-22.28-31.34-64.4-50.75-89.56-6.79-8.82-18.46-13.27-29.5-14.17,0,0-128.52-18.29-279.34-1.63-17,1.88-24.21,10.27-28,15.13-19.59,25.4-42,68-51,90.14h-7.61c1.82-14.19-1.5-28.43-11-29.67-16.43-2.13-32.9-7.91-40.06,3.09-11.14,17.15-12.91,34.71,53.93,40.45a31.55,31.55,0,0,1-12,14.16,32.27,32.27,0,0,0-14.37,19.3c-3.4,12-14.66,14.51-18.74,25.7C165,307.06,164,367,165.06,449.06a18.77,18.77,0,0,0,2.86,9.75,188.89,188.89,0,0,0,3.78,42.92c0,7.24,6.8,13.12,15.17,13.12H223c11.95,0,21.66-8.39,21.66-18.72V471.92c3,.1,6.36.2,10.18.3a16.39,16.39,0,0,0,7.49-1.52,31.25,31.25,0,0,1,13.33-3H608a31,31,0,0,1,15.45,4.09,21,21,0,0,0,10.53,2.92l5.94,0v22.14c0,10.32,9.69,18.72,21.66,18.72h36.09c8.38,0,15.18-5.89,15.18-13.12a189.21,189.21,0,0,0,3.83-39.82,9.19,9.19,0,0,0,.52-2.87c1.43-74.21,5.34-149.92-2.53-171.66-1.87-5.34-5.53-8.73-9.12-12.1-5.21-4.9-7.5-10.54-9.62-13.59A32.14,32.14,0,0,0,681.54,243,31.66,31.66,0,0,1,668,224.49C736.8,219,735.11,201.28,723.87,184Z"/><rect class="cls-5" x="444.41" y="467.52" width="4" height="62.12"/><text class="cls-6" transform="translate(386.28 572.06)">F<tspan class="cls-7" x="20.36" y="0">R</tspan><tspan x="42.77" y="0">ON</tspan><tspan class="cls-8" x="99.21" y="0">T</tspan></text><rect class="cls-9" x="369.12" y="529.64" width="154.1" height="55" transform="translate(892.33 1114.28) rotate(-180)"/></g></g></svg>