<svg xmlns="http://www.w3.org/2000/svg" viewBox="0 0 889 612"><defs><style>.cls-1,.cls-3,.cls-8{fill:none;stroke:#fff;stroke-miterlimit:10;}.cls-1{stroke-width:1.5px;}.cls-2,.cls-4,.cls-5,.cls-7{fill:#fff;}.cls-2{opacity:0.5;}.cls-3{stroke-width:6px;}.cls-4,.cls-5{font-size:36px;font-family:Lato-Medium, Lato;font-weight:500;}.cls-5{letter-spacing:-0.05em;}.cls-6{letter-spacing:0em;}.cls-8{stroke-width:2px;}</style></defs><title>Rear Passenger Side</title><g id="Layer_2" data-name="Layer 2"><g id="Layer_1-2" data-name="Layer 1"><ellipse class="cls-1" cx="519.01" cy="387.59" rx="28.96" ry="61.98"/><ellipse class="cls-1" cx="779.74" cy="327.2" rx="17.48" ry="46.67"/><path class="cls-1" d="M429.82,189.67c-51.37,13.23-234.75-3.24-234.15-3.64,11.21-7.33,81.21-41.65,103.81-47.45,49.13-12.62,197.51-1,197.51-1S450.6,184.33,429.82,189.67Z"/><path class="cls-1" d="M731.53,211.69,559.2,206s-67.74-24.83-58.26-35.1C543,125.3,604.13,121.56,654.41,147.13,698.07,169.34,731.53,211.69,731.53,211.69Z"/><path class="cls-2" d="M0,0V612H889V0ZM72,301.53a5.24,5.24,0,0,1,.69-2.62c3.27-5.74,11.51-22.49,15.38-31.5a10.61,10.61,0,0,0,.81-3.07c-.93-3.74-3-7.71-3.74-13.54-.19-1.56-.3-3-.34-4.26,0-.07,0-.14,0-.22-.64-5.37-.49-8.92.86-12.91,1.3-3.84,2.3-10.66,6.67-14.67,5.56-5.11,8.37-1.5,13.11-7.11,2-2.41,5.19-13.48,11.22-14.44,43-6.81,77.86-32.13,106.57-44.75C320.09,109.84,379.32,114,400.54,112c16.87-1.58,201.54-5.51,250,18.64,40,20,65.58,40,82.26,55.74.71-2,2.37-2.62,4.9-2.7,8.53-.29,27.86,0,31.12,8.59,1.14,3-.4,7.83-2.08,12.74a8.2,8.2,0,0,1-6.41,5.46c-1.26.21-2.75.44-4.37.66,3.21,3.67,5.34,5.9,6.88,6.26,1,.24,13.34,3.31,19.39,6.22,3.85-.32,12.94-.28,17.77,6.44,0,0,6,7.87,2.81,17.78a77.62,77.62,0,0,1,4.78,8.89,121.75,121.75,0,0,1,10.37,31.71,74.66,74.66,0,0,1,.84,7.87c1.6,14.63,1.26,39.72.61,44a23.81,23.81,0,0,1-2.22,6.89l0,0c-1.38,2.69-6.13,1.22-6.14,1.31-1.84,17-5.59,31-12.32,38.76-.13.16-.27.31-.41.47l-.07.08c-.34.38-.69.75-1.09,1.12a17.19,17.19,0,0,1-6.53,4.11A49.67,49.67,0,0,1,770.7,397c-8,0-15.33-1.61-20.74-4.23a15.09,15.09,0,0,1-2.52-1.36l-.17-.11-.45-.31a15.65,15.65,0,0,1-5.1-5.09A51.08,51.08,0,0,1,734.88,373c-9,1.63-18.18,3.44-27.36,5.27-32.34,9.32-94.23,24.88-134.68,40.6a3.4,3.4,0,0,1-3.2-.41c-.5-.35-1-.68-1.57-1a2,2,0,0,0-3,1.46c-3.22,19.54-11,35.61-19.46,44.81-.18.21-.37.42-.56.62l-.1.1a19.26,19.26,0,0,1-1.51,1.48,23.86,23.86,0,0,1-9,5.42c-7.35,3.13-17,5-27.5,5-11.13,0-21.22-2.13-28.72-5.58a22.07,22.07,0,0,1-3.48-1.79l-.24-.14-.63-.41a21.39,21.39,0,0,1-7.06-6.71c-5.17-6.41-9.53-15.48-12.71-26.33-12.88-.73-29.92-1.82-54-3.08-10.09-.52-16.08-3.56-21.2-7.53l-136-12.54c-3,8.73-6.81,16.09-11.19,21.52a21.19,21.19,0,0,1-7.06,6.71c-.2.15-.41.28-.62.41l-.25.15a21.64,21.64,0,0,1-3.48,1.79c-7.49,3.45-17.58,5.58-28.72,5.58-10.54,0-20.14-1.91-27.5-5a24.07,24.07,0,0,1-9-5.42c-.54-.48-1-1-1.5-1.48a.47.47,0,0,1-.1-.1c-.19-.21-.39-.41-.57-.62-6.7-7.32-12.22-19-15.77-33.24l-50.41-4.65c-2.5-.23-6.41-3.46-6.72-4.28-4.17-10.94-7.51-32.06-7.51-32.06v-2.68c-.25-1.14-.38-1.81-.38-1.81Z"/><path class="cls-1" d="M126,260.07a11.56,11.56,0,0,1-4.13,1.67c-3.43.73-29.55,2.84-36.37-5.57-7.1-8.76-1-38.44,9.16-40.1,1.83-.3,2.51,2.91,4.23,3.78,14.77,7.47,38,16.51,54.22,17.56.66,0,.24,3-.31,3.39C143.39,247.49,135.56,253.27,126,260.07Z"/><path class="cls-1" d="M421.13,270.75c-14.62,6.1-38.57,6.13-73.78,3.18-25.78-2.16-42.08-6.52-42.08-6.52l-21-22.23s72-10.37,122.38-19.55c50.89-9.28,84.7,4.25,85,9.48.12,2.15-9,2.6-25.4,9.19C440.36,254.69,438.72,263.41,421.13,270.75Z"/><path class="cls-3" d="M72.87,299.35c3.27-5.74,11.51-22.49,15.37-31.5a10.73,10.73,0,0,0,.82-3.07c-.93-3.74-3-7.72-3.74-13.54-.19-1.56-.3-3-.35-4.26l0-.22c-.64-5.37-.5-8.92.86-12.91,1.3-3.84,2.3-10.66,6.67-14.67,5.55-5.11,8.37-1.5,13.11-7.11,2-2.41,5.18-13.48,11.22-14.44,43-6.81,77.85-32.13,106.57-44.76,96.89-42.59,156.12-38.41,177.35-40.41,16.86-1.58,201.54-5.52,249.95,18.64,40,20,65.58,40,82.26,55.74.7-2,2.37-2.62,4.9-2.7,8.52-.29,27.86,0,31.12,8.59,1.14,3-.4,7.83-2.08,12.74a8.2,8.2,0,0,1-6.42,5.46c-1.25.21-2.75.44-4.36.66,3.21,3.67,5.34,5.9,6.88,6.26,1,.24,13.33,3.31,19.39,6.22,3.85-.32,12.94-.28,17.76,6.44,0,0,6,7.87,2.82,17.78a77.62,77.62,0,0,1,4.78,8.89,122.13,122.13,0,0,1,10.37,31.71,74.85,74.85,0,0,1,.83,7.87c1.6,14.63,1.27,39.72.61,44a23.42,23.42,0,0,1-2.21,6.89l0,.05c-1.38,2.69-6.13,1.22-6.14,1.31-1.85,17-5.59,31-12.32,38.76-.13.16-.27.31-.41.47l-.07.08c-.34.38-.7.75-1.09,1.12a17.15,17.15,0,0,1-6.54,4.11,49.61,49.61,0,0,1-19.85,3.82c-8,0-15.33-1.61-20.75-4.23a15.77,15.77,0,0,1-2.51-1.36l-.17-.11-.46-.31a15.71,15.71,0,0,1-5.09-5.09,50.76,50.76,0,0,1-6.85-12.86c-9,1.63-18.17,3.44-27.36,5.27C675.36,388,613.47,403.58,573,419.3a3.39,3.39,0,0,1-3.2-.41c-.5-.35-1-.68-1.57-1a2,2,0,0,0-3,1.46c-3.22,19.54-11,35.61-19.46,44.81-.18.21-.37.42-.57.62l-.1.1a21,21,0,0,1-1.5,1.48,23.94,23.94,0,0,1-9.05,5.42c-7.36,3.13-17,5-27.5,5-11.14,0-21.23-2.13-28.72-5.58a21.64,21.64,0,0,1-3.48-1.79l-.24-.14-.63-.41a21.31,21.31,0,0,1-7.06-6.72c-5.17-6.4-9.53-15.47-12.71-26.32-12.88-.73-29.93-1.82-54-3.08-10.09-.52-16.08-3.56-21.2-7.53L243,412.72c-3,8.73-6.8,16.09-11.18,21.52a21.29,21.29,0,0,1-7.06,6.71c-.21.15-.42.28-.63.41l-.24.15a22.07,22.07,0,0,1-3.48,1.79c-7.5,3.45-17.59,5.58-28.72,5.58-10.54,0-20.14-1.91-27.5-5a24,24,0,0,1-9.05-5.42c-.55-.48-1-1-1.51-1.48l-.1-.1c-.19-.21-.38-.41-.56-.62-6.71-7.32-12.23-19-15.77-33.25l-50.42-4.64c-2.49-.23-6.4-3.46-6.71-4.28C75.9,383.11,72.55,362,72.55,362v-2.68c-.24-1.15-.37-1.81-.37-1.81V302A5.24,5.24,0,0,1,72.87,299.35Z"/><text class="cls-4" transform="translate(45.52 567)">REAR </text><text class="cls-5" transform="translate(551.6 566.72)">P<tspan class="cls-6" x="19.98" y="0">ASSENGER SIDE</tspan></text><polygon class="cls-7" points="731.01 526.8 727.19 526.8 654.48 390.8 658.31 390.8 731.01 526.8"/><polygon class="cls-7" points="137.58 526.8 132.21 526.8 296.92 415.8 302.29 415.8 137.58 526.8"/><rect class="cls-8" x="530.49" y="526.8" width="328.69" height="55" transform="translate(1389.67 1108.6) rotate(-180)"/><rect class="cls-8" x="30.18" y="526.8" width="121.31" height="55" transform="translate(181.67 1108.6) rotate(-180)"/></g></g></svg>