<svg xmlns="http://www.w3.org/2000/svg" viewBox="0 0 889 612"><defs><style>.cls-1,.cls-3,.cls-7{fill:none;stroke:#fff;stroke-miterlimit:10;}.cls-1{stroke-width:1.5px;}.cls-2,.cls-4,.cls-6,.cls-8{fill:#fff;}.cls-2{opacity:0.5;}.cls-3{stroke-width:7px;}.cls-4,.cls-8{font-size:36px;font-family:Lato-Medium, Lato;font-weight:500;}.cls-4{letter-spacing:-0.05em;}.cls-5{letter-spacing:0em;}.cls-7{stroke-width:2px;}.cls-9{letter-spacing:-0.01em;}.cls-10{letter-spacing:-0.03em;}</style></defs><title>Front Passenger Side</title><g id="Layer_2" data-name="Layer 2"><g id="Layer_1-2" data-name="Layer 1"><ellipse class="cls-1" cx="403.92" cy="390.34" rx="27.62" ry="59.12" transform="translate(-10.57 11.24) rotate(-1.57)"/><ellipse class="cls-1" cx="141.97" cy="328.58" rx="16.67" ry="44.52"/><path class="cls-1" d="M771.89,289.7c-4.57,6.5,12.41,25.8,18.79,21.7,11.87-7.63,11.87-35.09-5.94-52.89-9-9-32.63-13.47-41.5-14.87a.45.45,0,0,0-.26.86C753.81,249.4,787.79,267.07,771.89,289.7Z"/><path class="cls-1" d="M436.05,227.43,658.5,215.91S569.72,148.31,548,143c-47.33-11.56-203.45-1.31-203.45-1.31l62.74,73.36A35.51,35.51,0,0,0,436.05,227.43Z"/><path class="cls-1" d="M202.62,194.58c3.55,6.24,141,31.14,179.7,38.29,4,.74-41.3-67.66-56.44-80.56-8-6.83-24.13-14.84-48.91-14.77-48.27.14-79.8,27.57-86.16,32a3,3,0,0,0-.93,4C193.16,179.35,201.26,192.19,202.62,194.58Z"/><path class="cls-2" d="M0,0V612H889V0ZM107.69,321.42c-3.4-16.14-2.57-25.72-1.93-30.66.29-2.25-.34-8.55,0-17.24s2.08-16.91,1.69-18.37c-2-7.77,2-43.17,14.42-59.49,2.43-3.19,5.86-8.85,9.61-11.45,2.91-2,9.75-1.69,9.75-1.69,37.52-30.74,72.28-50.88,118.49-59.78,26.51-5.11,57.53-10.12,121.59-10.24,57.1-.1,81,2.14,133.49,11.51,9.59,1.72,28.87,6.42,42.32,11.87,17.15,7,35.59,16.93,87,49.62,0,0,26.57.4,28.69,7.61s1.2,11.52,1.2,11.52l8.76,5.66c32.8,21.19,38.23,20.86,51.08,27.76,15.21,8.17,21,4.23,45.37,14.81,14.44,6.27,19.69,22.17,20.35,23.45s2.7,32.85,5,39.39c2.71,7.82,5.71,11.6,7.74,20.85.86,3.9,2.34,10.4,3.67,16.22a88.65,88.65,0,0,1,.8,36.94,47.86,47.86,0,0,1-4.49,13.55c-3.79,6.86-12.26,12.41-24.31,16.91a29.35,29.35,0,0,1-4.66,1.31l.29.76q-3,.66-6,1.3a49.73,49.73,0,0,1-6.91,9.93c-.17.21-.36.4-.54.6l-.1.1a17.45,17.45,0,0,1-1.44,1.4,22.81,22.81,0,0,1-8.62,5.17c-7,3-16.18,4.81-26.23,4.81-10.62,0-20.25-2-27.4-5.32a20.9,20.9,0,0,1-3.32-1.71l-.23-.14c-.2-.13-.4-.25-.6-.39a26.72,26.72,0,0,1-2.85-2.05,780.68,780.68,0,0,1-97.19,4.24s-90.38-.59-128.32-.09a72.83,72.83,0,0,1-10.53,21,22.38,22.38,0,0,1-7.23,7.27l-.65.44-.25.17a22.76,22.76,0,0,1-3.61,2c-7.78,3.85-18.33,6.38-30,6.71-11.08.3-21.24-1.43-29.06-4.51a25.14,25.14,0,0,1-9.67-5.44,21.71,21.71,0,0,1-1.63-1.51l-.11-.1c-.21-.21-.42-.42-.61-.64-9.92-10.24-17.74-29-21.23-51.91-9.33-2-36.84-13.85-112.23-33.38-17.73-4.22-35.36-7.41-52.69-10.33A58.16,58.16,0,0,1,186,386a17.16,17.16,0,0,1-5.6,5.6c-.16.12-.33.23-.5.34l-.19.13a16.79,16.79,0,0,1-2.76,1.48c-5.95,2.88-14,4.66-22.8,4.66a54.55,54.55,0,0,1-21.84-4.2,18.92,18.92,0,0,1-7.18-4.53c-.43-.39-.82-.81-1.2-1.22l-.07-.09c-.16-.17-.31-.34-.45-.52C114,376.79,107.5,354.57,107.5,328.9,107.5,326.37,107.57,323.87,107.69,321.42Z"/><path class="cls-1" d="M473.4,309.71c11.82,8.31,33,12.59,64.8,16.09A242.7,242.7,0,0,0,575,327.28a5.47,5.47,0,0,0,3-1.1l20.13-15a.91.91,0,0,0-.23-1.59c-9.9-3.62-64.34-23.57-103.22-39.46-43.36-17.72-75.86-11.08-77.09-6.23-.5,2,7.53,4,20.8,13.1C459.37,291.28,459.19,299.72,473.4,309.71Z"/><path class="cls-3" d="M105.58,290.29c.29-2.26-.34-8.55,0-17.24s2.08-16.91,1.69-18.37c-2-7.77,2-43.17,14.42-59.49,2.43-3.19,5.87-8.85,9.61-11.45,2.91-2,9.75-1.7,9.75-1.7,37.52-30.73,72.28-50.87,118.49-59.77,26.51-5.11,57.53-10.12,121.59-10.24,57.1-.1,81,2.13,133.49,11.51,9.59,1.71,28.87,6.42,42.32,11.87,17.15,7,35.59,16.93,87.06,49.62,0,0,26.56.4,28.68,7.61s1.2,11.52,1.2,11.52l8.76,5.65c32.8,21.19,38.23,20.87,51.09,27.77,15.2,8.17,21,4.23,45.36,14.81,14.44,6.27,19.69,22.17,20.35,23.45s2.7,32.85,5,39.39c2.71,7.81,5.72,11.59,7.75,20.85.85,3.89,2.33,10.4,3.66,16.22a88.65,88.65,0,0,1,.8,36.94,48,48,0,0,1-4.49,13.55c-3.78,6.86-12.26,12.41-24.31,16.91a29.35,29.35,0,0,1-4.66,1.31l.29.76q-3,.66-6,1.3a49.73,49.73,0,0,1-6.91,9.93c-.17.2-.36.4-.54.6l-.1.09a19.1,19.1,0,0,1-1.43,1.41,22.92,22.92,0,0,1-8.63,5.17c-7,3-16.18,4.81-26.23,4.81-10.62,0-20.25-2-27.4-5.33a21.27,21.27,0,0,1-3.32-1.7l-.23-.14-.6-.39a27.78,27.78,0,0,1-2.85-2A778.56,778.56,0,0,1,602,439.7s-90.38-.59-128.32-.08a72.83,72.83,0,0,1-10.53,21,22.27,22.27,0,0,1-7.23,7.26c-.21.16-.43.3-.65.45l-.24.17a23.67,23.67,0,0,1-3.61,2c-7.79,3.85-18.34,6.38-30.05,6.7-11.08.31-21.24-1.42-29.06-4.5a25.27,25.27,0,0,1-9.67-5.44c-.59-.49-1.12-1-1.63-1.51l-.11-.1c-.21-.22-.42-.43-.61-.64-9.92-10.24-17.74-29.05-21.23-51.91-9.33-2-36.84-13.85-112.22-33.38-17.74-4.22-35.37-7.41-52.7-10.33a58.42,58.42,0,0,1-8.28,16.13,17.26,17.26,0,0,1-5.6,5.6l-.5.34-.2.12a16.13,16.13,0,0,1-2.76,1.49c-6,2.88-14,4.66-22.8,4.66a54.49,54.49,0,0,1-21.83-4.21A18.73,18.73,0,0,1,125,389c-.43-.4-.82-.81-1.19-1.23l-.08-.08c-.16-.17-.31-.34-.45-.52-9.45-10.83-15.94-33-15.94-58.72,0-2.53.07-5,.19-7.48C104.11,304.81,104.94,295.23,105.58,290.29Z"/><text class="cls-4" transform="translate(45.6 568.72)">P<tspan class="cls-5" x="19.98" y="0">ASSENGER SIDE</tspan></text><polygon class="cls-6" points="181.65 527.81 184.65 527.81 244.65 376.81 241.65 376.81 181.65 527.81"/><rect class="cls-7" x="29.65" y="527.81" width="325" height="55"/><text class="cls-8" transform="translate(721.88 569.78)">F<tspan class="cls-9" x="20.36" y="0">R</tspan><tspan x="42.77" y="0">ON</tspan><tspan class="cls-10" x="99.21" y="0">T</tspan></text><polygon class="cls-6" points="756.84 527.36 761.5 527.36 621.6 442.36 616.93 442.36 756.84 527.36"/><rect class="cls-7" x="704.72" y="527.36" width="154.1" height="55" transform="translate(1563.53 1109.72) rotate(-180)"/></g></g></svg>