<svg xmlns="http://www.w3.org/2000/svg" viewBox="0 0 877.56 613.56"><defs><style>.cls-1,.cls-3,.cls-4,.cls-5,.cls-9{fill:none;stroke:#fff;stroke-miterlimit:10;}.cls-1{stroke-width:1.27px;}.cls-2,.cls-6,.cls-7{fill:#fff;}.cls-2{opacity:0.5;}.cls-3{stroke-width:1.32px;}.cls-4{stroke-width:1.22px;}.cls-5{stroke-width:4.41px;}.cls-7{font-size:36px;font-family:Lato-Medium, Lato;font-weight:500;letter-spacing:-0.05em;}.cls-8{letter-spacing:0em;}.cls-9{stroke-width:2.02px;}</style></defs><title>Passenger Side</title><g id="Layer_2" data-name="Layer 2"><g id="Layer_1-2" data-name="Layer 1"><circle class="cls-1" cx="202.93" cy="388.81" r="45.18" transform="translate(-215.49 257.37) rotate(-45)"/><path class="cls-2" d="M0,0V613.56H877.56V0ZM42.16,324.69c0-9.11,10.67-14.06,14.19-27.73,2.47-9.24-.26-13,.65-24.08a55.39,55.39,0,0,1,2.86-13.94,68.81,68.81,0,0,1,7.56-16.27,4.07,4.07,0,0,1,3.38-1.82c12.63.52,32.29,2.6,54.68-3.26,67.31-17.83,92.83-37.75,166.26-51,28.38-5.08,59.63-7.68,100.38-7.55a485.51,485.51,0,0,1,118.61,14.58C562,206.74,636.1,251.52,667.61,255.82c14.06,1.95,85.15,6.12,137.35,41,19,12.76,26.56,28.38,29.69,38.15.65,1.82,2.86,5.08,2.21,8.85a12.29,12.29,0,0,1-4.17,6.64c-3.51,3.26,14.2,16.14,0,41.27-17.44,6-34.37,14.32-53.24,15-2.35.13-3.91.27-6,.4h-.08a.62.62,0,0,1-.57-.66v-.26c0-.07,0-.15.07-.23a15.91,15.91,0,0,1-1.25-2.5s-2.49-3.82-6.81-9.36c-3.53,28.81-28.79,51.15-59.46,51.15-30.39,0-55.48-22-59.35-50.4-3.35,4.14-6.73,15.22-6.26,18,.13.65-.13,1.18-.78,1.18-131.24,5.33-257.53.52-371.19,2.47-.95,0-3.61-12-6.35-15.64-5.89,26.07-29.83,45.58-58.48,45.58-31.58,0-57.43-23.69-59.71-53.74-5.16,6.11-10.93,12.39-11.9,12.6h-.91a492,492,0,0,1-71-17.57C34.35,373.65,42.16,334.33,42.16,324.69Z"/><ellipse class="cls-1" cx="705.36" cy="387.64" rx="46.09" ry="44.92"/><path class="cls-3" d="M61.39,262.72c7.55-8.46,86.32-12.11,96.6,5.34.13,0,.13.13,0,.13-15.75,1.56-33.85,3.9-43.35,6.9C104,278.34,94.33,285.5,81.57,288.76a39.36,39.36,0,0,1-16.53,0,4.19,4.19,0,0,1-3.39-3.13C60.09,279.52,58.79,265.58,61.39,262.72Z"/><path class="cls-3" d="M787.68,322.48a230.78,230.78,0,0,0-73.56-37.76c-.39-.13,0-2.47.26-2.47,13.67.91,81,8.46,99.73,25.52,2.09,1.82,0,10-1.17,14.32a3.37,3.37,0,0,1-3.51,2.47l-18.49-1A6.14,6.14,0,0,1,787.68,322.48Z"/><path class="cls-4" d="M425.94,194.12c63.32,3.56,89.7,14.46,148.74,45.12C592.37,249,615.1,260.73,633,270.49c.12,0,.24.26.24.39a.55.55,0,0,1-.49.39c-65.84-.8-136.41-4.47-206.84-9.27Z"/><path class="cls-4" d="M233.05,223.36c34.36-14.26,94.7-31.21,169.45-30.11v67.11q-19.63-1.39-39.17-2.89-34.29-2.73-67.85-5.86a242.6,242.6,0,0,1-62.55-25.78,1.36,1.36,0,0,1,.12-2.47Z"/><path class="cls-5" d="M60,388.63a491.67,491.67,0,0,0,71,17.58h.91c1-.22,6.74-6.49,11.9-12.61,2.28,30,28.13,53.75,59.7,53.75,28.66,0,52.6-19.52,58.49-45.59,2.74,3.67,5.4,15.63,6.35,15.64,113.66-1.95,240,2.87,371.18-2.47.65,0,.91-.52.78-1.17-.46-2.76,2.91-13.84,6.27-18,3.87,28.45,29,50.41,59.35,50.41,30.66,0,55.93-22.35,59.45-51.16,4.32,5.54,6.82,9.36,6.82,9.36a15.91,15.91,0,0,0,1.25,2.5c0,.08,0,.16-.08.24v.26a.62.62,0,0,0,.57.65h.08c2.09-.13,3.65-.26,6-.39,18.88-.65,35.81-9,53.25-15,14.19-25.13-3.51-38,0-41.28a12.35,12.35,0,0,0,4.17-6.64c.65-3.77-1.56-7-2.22-8.85-3.12-9.76-10.67-25.39-29.68-38.15-52.21-34.89-123.29-39.05-137.35-41-31.51-4.29-105.59-49.08-156.89-62.23a485.85,485.85,0,0,0-118.6-14.58c-40.75-.13-72,2.47-100.38,7.55-73.43,13.28-99,33.2-166.26,51-22.39,5.85-42,3.77-54.68,3.25a4.12,4.12,0,0,0-3.39,1.82,68.45,68.45,0,0,0-7.55,16.28,55.22,55.22,0,0,0-2.86,13.93c-.91,11.06,1.82,14.84-.65,24.08-3.52,13.67-14.19,18.62-14.19,27.74C42.65,335.25,34.83,374.57,60,388.63Z"/><rect class="cls-6" x="456.68" y="418.21" width="4" height="108.5"/><text class="cls-7" transform="translate(308.05 569.13)">P<tspan class="cls-8" x="19.98" y="0">ASSENGER SIDE</tspan></text><rect class="cls-9" x="290.89" y="526.71" width="321.43" height="55" transform="translate(903.2 1108.43) rotate(-180)"/></g></g></svg>