<svg xmlns="http://www.w3.org/2000/svg" viewBox="0 0 886.5 614"><defs><style>.cls-1,.cls-3,.cls-6{fill:none;stroke:#fff;stroke-miterlimit:10;}.cls-1{stroke-width:1.24px;}.cls-2,.cls-4,.cls-5{fill:#fff;}.cls-2{opacity:0.5;}.cls-3{stroke-width:4.3px;}.cls-5{font-size:36px;font-family:Lato-Medium, Lato;font-weight:500;}.cls-6{stroke-width:2px;}</style></defs><title>Rear</title><g id="Layer_2" data-name="Layer 2"><g id="Layer_1-2" data-name="Layer 1"><path class="cls-1" d="M609.39,181H274.77c-3,0-5.41-2.73-5.41-6.09a6.76,6.76,0,0,1,.69-2.94s17.08-48.15,29.68-49.49c45.08-4.83,91.43-4.53,143.1-4.53,52,0,92.76-.3,142.38,4.53C601,124,614.1,163.76,615.88,168.35,618.2,174.31,615.21,181,609.39,181Z"/><path class="cls-1" d="M317.92,276.64c13.39-3.34,58.72-30.79,45.31-31.57-111.61-6.41-136.44-28-136.44-28-4.5-.8-22.79,6.07-27.86,11.68-4.66,5.16,1.45,48.51,10.94,48.18C213.29,276.84,292.16,283.05,317.92,276.64Z"/><path class="cls-1" d="M567.63,277.36c-13.39-3.34-58.73-30.79-45.32-31.57,111.63-6.41,136.45-28,136.45-28,4.49-.8,22.8,6.07,27.85,11.68,4.66,5.16-1.43,48.51-10.86,48.18C672.26,277.56,593.38,283.77,567.63,277.36Z"/><path class="cls-2" d="M0,0V614H886.5V0ZM677.39,208.76c.86,1.08,1.73,2.14,2.6,3.19,4.15,3,7,4.92,9.44,6.54a68.79,68.79,0,0,1,6.48,4.64c7.63,15.77,5,44.57,5,44.57,15.33,21.25,18.2,123.86,9.38,172.81A186.48,186.48,0,0,1,708,502.17c0,7.18-6.71,13-15,13H657.39c-11.81,0-21.39-8.29-21.39-18.54V458.41H248.69V496c0,10.25-9.58,18.54-21.39,18.54H191.64c-8.28,0-15-5.8-15-13a186.32,186.32,0,0,1-1-69.7c-4.85-47.73-9.36-126.15,9.51-157.45,7.43-12.28-8.32-33.58,2.15-50.33,6-9.64,17.11-11.9,23.35-16-59.37-6.08-57.43-22.68-46.91-38.89,7-10.72,23-5.09,39.06-3,9.28,1.2,12.51,15.09,10.74,28.92h5.79c17.08-31.11,49.07-82.26,69.52-85.53,24.15-9.84,241.8-18.14,306.15,0,31.1,7.24,49,51,73,86.39H673c-1.77-13.83,1.46-27.72,10.74-28.92,16-2.08,32.08-7.71,39.06,3C733.18,186.1,735.17,202.54,677.39,208.76Z"/><path class="cls-3" d="M722.94,170.19c-7-10.73-23-5.1-39.06-3-9.28,1.21-12.51,15.09-10.74,28.92H668.2c-24.05-35.37-41.9-79.14-73-86.39-64.35-18.14-282-9.84-306.15,0-20.46,3.28-52.44,54.42-69.52,85.53h-5.79c1.77-13.83-1.46-27.71-10.74-28.92-16-2.08-32.08-7.71-39.06,3-10.53,16.21-12.47,32.8,46.91,38.89-6.24,4.1-17.32,6.36-23.35,16-10.47,16.76,5.28,38.06-2.15,50.33C166.48,305.84,171,384.27,175.84,432a186.32,186.32,0,0,0,1,69.7c0,7.21,6.71,13,15,13h35.66c11.81,0,21.39-8.28,21.39-18.53V458.57H636.19v38.22c0,10.25,9.58,18.53,21.39,18.53h35.66c8.28,0,15-5.81,15-13a186.41,186.41,0,0,0,2.23-61.65c8.82-49,5.95-151.56-9.38-172.81,0,0,2.65-28.81-5-44.57a67.12,67.12,0,0,0-6.48-4.65c-2.42-1.61-5.3-3.53-9.44-6.53-.88-1.05-1.74-2.12-2.6-3.2C735.36,202.69,733.37,186.25,722.94,170.19Z"/><rect class="cls-4" x="437.55" y="460.08" width="4" height="68.98"/><text class="cls-5" transform="translate(394.21 569.27)">REAR </text><rect class="cls-6" x="378.86" y="529.06" width="121.31" height="55" transform="translate(879.04 1113.13) rotate(-180)"/></g></g></svg>